# xmcd CD database file
#
# Track frame offsets:
#	150
#	10883
#	26437
#	47008
#	58771
#	78231
#	95906
#	121935
#	139174
#	152811
#	169330
#	185152
#	207763
#	220394
#
# Disc length: 3095 seconds
#
# Revision: 1
# Processed by: cddbd v1.5PL3 Copyright (c) Steve Scherf et al.
# Submitted via: CDex 1.50beta10
#
DISCID=c70c150e
DTITLE=Skeeter Brandon and HWY 61 - I'm A Man Of My Word
DYEAR=1999
DGENRE=Blues
TTITLE0=Sugar Mama
TTITLE1=Baby Work Out
TTITLE2=I'm Man Of My Word
TTITLE3=How Old You Got To Be
TTITLE4=I'm A Hog For You
TTITLE5=Stop That Grinnin'
TTITLE6=Drug Avenue
TTITLE7=It Ain't Right
TTITLE8=The Girls Are Here
TTITLE9=Your Mama'a Always On My Mind
TTITLE10=Blues Down In My Bones
TTITLE11=When A Man Loves A Woman
TTITLE12=Gettin' Loaded
TTITLE13=Now Hear This
EXTD=YEAR: 1999
EXTT0=
EXTT1=
EXTT2=
EXTT3=
EXTT4=
EXTT5=
EXTT6=
EXTT7=
EXTT8=
EXTT9=
EXTT10=
EXTT11=
EXTT12=
EXTT13=
PLAYORDER=
